<?xml version="1.0" encoding="UTF-8" standalone="no"?>
<!DOCTYPE svg PUBLIC "-//W3C//DTD SVG 1.1//EN" "http://www.w3.org/Graphics/SVG/1.1/DTD/svg11.dtd">
<svg width="100%" height="100%" viewBox="0 0 20 20" version="1.1" xmlns="http://www.w3.org/2000/svg" xmlns:xlink="http://www.w3.org/1999/xlink" xml:space="preserve" xmlns:serif="http://www.serif.com/" style="fill-rule:evenodd;clip-rule:evenodd;stroke-linejoin:round;stroke-miterlimit:2;">
    <g>
        <path d="M16.518,16.606C16.52,16.921 16.521,17.236 16.521,17.553C16.521,18.492 15.764,19.272 14.826,19.299C12.724,19.35 10.495,19.35 8.003,19.35L2.257,19.35C1.361,19.326 0.622,18.616 0.562,17.723C0.4,15.053 0.477,12.426 0.477,9.883L0.477,5.247C0.476,5.221 0.475,5.196 0.475,5.171C0.475,4.241 1.24,3.475 2.17,3.475L3.164,3.475L3.164,2.534C3.163,2.508 3.162,2.483 3.162,2.457C3.162,1.527 3.928,0.762 4.857,0.762L6.715,0.762C7.512,0.762 8.258,0.813 9.055,0.762C9.427,0.703 10.021,0.703 10.385,0.703L17.166,0.652C18.089,0.669 18.846,1.416 18.878,2.339C18.912,3.483 18.954,4.61 18.996,5.729C19.106,8.848 19.208,11.789 19.208,14.84C19.209,15.779 18.452,16.559 17.513,16.586C17.185,16.594 16.853,16.601 16.518,16.606ZM4.028,3.475C4.825,3.475 5.571,3.526 6.367,3.475C6.74,3.416 7.333,3.416 7.698,3.416L14.478,3.365C15.401,3.383 16.159,4.129 16.19,5.052C16.224,6.196 16.267,7.323 16.309,8.442C16.398,10.956 16.481,13.354 16.51,15.787C16.845,15.783 17.177,15.778 17.505,15.772L17.507,15.772C17.995,15.772 18.397,15.371 18.397,14.882C18.397,14.86 18.396,14.837 18.395,14.815C18.378,11.746 18.276,8.805 18.166,5.703C18.123,4.593 18.047,3.466 18.047,2.313C18.02,1.843 17.628,1.469 17.157,1.466L10.377,1.517C10.021,1.517 9.444,1.576 9.097,1.576L4.876,1.576L4.874,1.576C4.409,1.576 4.027,1.958 4.027,2.423C4.027,2.443 4.027,2.463 4.029,2.483L4.028,3.475ZM14.817,18.486L14.82,18.486C15.308,18.486 15.71,18.084 15.71,17.596C15.71,17.573 15.709,17.55 15.707,17.528C15.69,14.46 15.589,11.519 15.478,8.417C15.436,7.306 15.36,6.179 15.36,5.026C15.333,4.556 14.941,4.183 14.47,4.179L7.689,4.23C7.333,4.23 6.757,4.289 6.41,4.289L2.189,4.289L2.187,4.289C1.722,4.289 1.339,4.672 1.339,5.137C1.339,5.156 1.34,5.176 1.341,5.196L1.341,9.866C1.307,12.392 1.273,15.002 1.426,17.638C1.451,18.093 1.819,18.46 2.274,18.486C7.249,18.553 11.241,18.545 14.817,18.486Z"/>
    </g>
</svg>
