<?xml version="1.0" encoding="UTF-8" standalone="no"?>
<!DOCTYPE svg PUBLIC "-//W3C//DTD SVG 1.1//EN" "http://www.w3.org/Graphics/SVG/1.1/DTD/svg11.dtd">
<svg width="100%" height="100%" viewBox="0 0 20 20" version="1.1" xmlns="http://www.w3.org/2000/svg" xmlns:xlink="http://www.w3.org/1999/xlink" xml:space="preserve" xmlns:serif="http://www.serif.com/" style="fill-rule:evenodd;clip-rule:evenodd;stroke-linejoin:round;stroke-miterlimit:2;">
    <g>
        <path d="M5.25,4.83L14.25,4.73C14.524,4.73 14.75,4.504 14.75,4.23C14.75,3.956 14.524,3.73 14.25,3.73L5.25,3.83C4.976,3.83 4.75,4.056 4.75,4.33C4.75,4.604 4.976,4.83 5.25,4.83Z" style="fill-rule:nonzero;"/>
        <path d="M19.62,11.07C19.62,8.78 19.54,6.49 19.49,4.18C19.48,3.912 19.259,3.695 18.99,3.69L17.43,3.69C17.156,3.69 16.93,3.916 16.93,4.19C16.93,4.464 17.156,4.69 17.43,4.69L18.5,4.69L18.5,6.93L1.27,7.25L1.27,4.87L1.96,4.87C2.236,4.865 2.46,4.636 2.46,4.36C2.444,4.09 2.221,3.875 1.95,3.87C1.95,3.87 0.74,3.87 0.74,3.87C0.471,3.87 0.25,4.091 0.25,4.36C0.25,4.363 0.25,4.367 0.25,4.37L0.25,11.03C0.25,13.26 0.25,15.47 0.31,17.67C0.313,17.922 0.501,18.135 0.75,18.17C4.333,18.617 7.94,18.844 11.55,18.85C14.17,18.85 16.737,18.723 19.25,18.47C19.507,18.449 19.706,18.228 19.7,17.97C19.71,15.65 19.66,13.36 19.62,11.07ZM1.36,17.23C1.36,15.17 1.36,13.09 1.3,11.01L1.3,8.25L18.58,7.94L18.64,11.09L18.76,17.52C12.966,18.036 7.134,17.939 1.36,17.23Z" style="fill-rule:nonzero;"/>
        <path d="M3.52,5.77C3.52,5.77 3.52,5.77 3.52,5.77C3.932,5.77 4.27,5.431 4.27,5.02C4.27,5.013 4.27,5.007 4.27,5L4.27,2.11C4.27,1.699 3.931,1.36 3.52,1.36C3.109,1.36 2.77,1.699 2.77,2.11L2.77,5C2.77,5.003 2.77,5.007 2.77,5.01C2.77,5.423 3.107,5.765 3.52,5.77Z" style="fill-rule:nonzero;"/>
        <path d="M15.84,6C16.251,6 16.59,5.661 16.59,5.25L16.59,2.11C16.59,1.699 16.251,1.36 15.84,1.36C15.429,1.36 15.09,1.699 15.09,2.11L15.09,5.23C15.09,5.233 15.09,5.237 15.09,5.24C15.09,5.653 15.427,5.995 15.84,6Z" style="fill-rule:nonzero;"/>
        <path d="M9.632,11.997C7.823,10.634 6.663,10.142 6.663,10.142C6.408,10.036 6.288,9.742 6.395,9.488C6.502,9.233 6.795,9.113 7.05,9.22C7.05,9.22 8.389,9.777 10.441,11.356C11.26,10.739 12.192,10.129 13.224,9.596C13.47,9.469 13.771,9.565 13.898,9.81C14.025,10.056 13.929,10.357 13.683,10.484C12.79,10.946 11.975,11.468 11.248,12.001C12.273,12.852 13.434,13.932 14.668,15.288C14.854,15.492 14.839,15.809 14.635,15.994C14.43,16.18 14.114,16.165 13.928,15.961C12.657,14.564 11.468,13.471 10.436,12.628C8.421,14.266 7.276,15.815 7.276,15.815C7.112,16.037 6.798,16.084 6.576,15.92C6.354,15.756 6.307,15.443 6.471,15.221C6.471,15.221 7.613,13.673 9.632,11.997Z"/>
    </g>
</svg>
