<?xml version="1.0" encoding="UTF-8" standalone="no"?><!DOCTYPE svg PUBLIC "-//W3C//DTD SVG 1.1//EN" "http://www.w3.org/Graphics/SVG/1.1/DTD/svg11.dtd"><svg width="100%" height="100%" viewBox="0 0 20 20" version="1.1" xmlns="http://www.w3.org/2000/svg" xmlns:xlink="http://www.w3.org/1999/xlink" xml:space="preserve" xmlns:serif="http://www.serif.com/" style="fill-rule:evenodd;clip-rule:evenodd;stroke-linecap:round;stroke-linejoin:round;stroke-miterlimit:1.5;"><path d="M1.245,5.919c0.96,0.562 1.837,1.238 2.773,1.834c1.186,0.755 2.41,1.451 3.596,2.208c1.611,1.027 3.163,2.133 4.738,3.211c1.433,0.982 3.027,1.687 4.394,2.77" style="fill:none;stroke:#000;stroke-width:1px;"/><path d="M1.245,5.663c0.765,-0.543 1.547,-1.198 2.028,-2.016" style="fill:none;stroke:#000;stroke-width:1px;"/><path d="M3.567,3.295c1.664,1.333 3.512,2.478 5.295,3.632c1.772,1.148 3.496,2.367 5.257,3.529c1.507,0.993 3.074,1.889 4.542,2.945" style="fill:none;stroke:#000;stroke-width:1px;"/><path d="M18.921,13.489c-0.14,0.241 -0.338,0.432 -0.496,0.658c-0.431,0.616 -0.854,1.235 -1.299,1.841" style="fill:none;stroke:#000;stroke-width:1px;"/><path d="M0.99,12.28c2.751,-0.511 5.572,-0.729 8.347,-1.106" style="fill:none;stroke:#000;stroke-width:1px;"/><path d="M0.772,12.28c-0.005,0.996 0.147,1.99 0.218,2.98" style="fill:none;stroke:#000;stroke-width:1px;"/><path d="M0.99,15.26c1.437,-0.029 2.877,-0.513 4.299,-0.73c2.411,-0.366 4.836,-0.569 7.243,-0.971" style="fill:none;stroke:#000;stroke-width:1px;"/><path d="M14.167,10.487c0.94,-0.043 1.843,-0.238 2.773,-0.373c0.429,-0.062 0.862,-0.059 1.291,-0.114" style="fill:none;stroke:#000;stroke-width:1px;"/><path d="M18.247,10c-0.064,0.862 0.083,1.708 0.118,2.566" style="fill:none;stroke:#000;stroke-width:1px;"/><path d="M8.402,6.425c0.603,-1.631 1.095,-3.375 1.598,-5.06" style="fill:none;stroke:#000;stroke-width:1px;"/><path d="M10.457,1.365c0.834,0.28 1.674,0.559 2.482,0.905" style="fill:none;stroke:#000;stroke-width:1px;"/><path d="M12.939,2.27c-0.496,2.064 -1.015,4.076 -1.804,6.047" style="fill:none;stroke:#000;stroke-width:1px;"/><path d="M7.401,10c-0.099,0.431 -0.232,0.856 -0.382,1.272" style="fill:none;stroke:#000;stroke-width:1px;"/><path d="M9.629,14.266c-0.422,1.38 -0.575,2.914 -0.92,4.34" style="fill:none;stroke:#000;stroke-width:1px;"/><path d="M6.503,14.56c-0.344,1.081 -0.386,2.255 -0.786,3.314" style="fill:none;stroke:#000;stroke-width:1px;"/><path d="M5.717,17.874c1.032,0.168 1.976,0.526 2.992,0.732" style="fill:none;stroke:#000;stroke-width:1px;"/></svg>